<mxfile host="65bd71144e">
    <diagram id="-BKLEoMfoBgioRVaDj08" name="Page-1">
        <mxGraphModel dx="1721" dy="559" grid="1" gridSize="10" guides="1" tooltips="1" connect="1" arrows="1" fold="1" page="1" pageScale="1" pageWidth="850" pageHeight="1100" math="0" shadow="0">
            <root>
                <mxCell id="0"/>
                <mxCell id="1" parent="0"/>
                <mxCell id="5" value="" style="line;strokeWidth=1;direction=south;html=1;dashed=1;dashPattern=20 20;fillColor=#b1ddf0;strokeColor=#10739e;" parent="1" vertex="1">
                    <mxGeometry x="240" y="40" width="10" height="1040" as="geometry"/>
                </mxCell>
                <mxCell id="6" value="Model" style="text;align=center;fontSize=16;fontStyle=1;spacing=-1;" parent="1" vertex="1">
                    <mxGeometry x="80" y="20" width="60" height="20" as="geometry"/>
                </mxCell>
                <mxCell id="7" value="View" style="text;align=center;fontSize=16;fontStyle=1;spacing=-1;" parent="1" vertex="1">
                    <mxGeometry x="350" y="20" width="60" height="20" as="geometry"/>
                </mxCell>
                <mxCell id="8" value="" style="line;strokeWidth=1;direction=south;html=1;dashed=1;dashPattern=20 20;fillColor=#b1ddf0;strokeColor=#10739e;" parent="1" vertex="1">
                    <mxGeometry x="520" y="40" width="10" height="1030" as="geometry"/>
                </mxCell>
                <mxCell id="9" value="Controller" style="text;align=center;fontSize=16;fontStyle=1;spacing=-1;" parent="1" vertex="1">
                    <mxGeometry x="640" y="20" width="60" height="20" as="geometry"/>
                </mxCell>
                <mxCell id="10" value="" style="line;strokeWidth=1;direction=south;html=1;dashed=1;dashPattern=20 20;fillColor=#b1ddf0;strokeColor=#10739e;" parent="1" vertex="1">
                    <mxGeometry x="800" y="40" width="10" height="1010" as="geometry"/>
                </mxCell>
                <mxCell id="14" style="edgeStyle=none;html=1;fontColor=#FFFFFF;" parent="1" source="12" target="13" edge="1">
                    <mxGeometry relative="1" as="geometry"/>
                </mxCell>
                <mxCell id="12" value="&lt;font color=&quot;#000000&quot;&gt;Hacking btn clicked&lt;/font&gt;" style="html=1;shape=mxgraph.infographic.ribbonSimple;notch1=20;notch2=0;align=center;verticalAlign=middle;fontSize=14;fontStyle=0;flipH=1;fillColor=#FFFFFF;" parent="1" vertex="1">
                    <mxGeometry x="575" y="100" width="190" height="40" as="geometry"/>
                </mxCell>
                <mxCell id="16" style="edgeStyle=none;html=1;entryX=0.5;entryY=0;entryDx=0;entryDy=0;fontColor=#FFFFFF;startArrow=none;" parent="1" source="18" target="34" edge="1">
                    <mxGeometry relative="1" as="geometry">
                        <Array as="points">
                            <mxPoint x="-150" y="220"/>
                        </Array>
                    </mxGeometry>
                </mxCell>
                <mxCell id="13" value="hackTheSystem" style="html=1;align=center;verticalAlign=top;rounded=1;absoluteArcSize=1;arcSize=10;dashed=0;fontColor=#FFFFFF;" parent="1" vertex="1">
                    <mxGeometry x="600" y="200" width="140" height="40" as="geometry"/>
                </mxCell>
                <mxCell id="15" value="addStudent" style="html=1;align=center;verticalAlign=top;rounded=1;absoluteArcSize=1;arcSize=10;dashed=0;fontColor=#FFFFFF;" parent="1" vertex="1">
                    <mxGeometry x="100" y="270" width="140" height="40" as="geometry"/>
                </mxCell>
                <mxCell id="18" value="" style="fillColor=#ffffff;strokeColor=#000000;fontColor=#FFFFFF;" parent="1" vertex="1">
                    <mxGeometry x="590" y="215" width="10" height="10" as="geometry"/>
                </mxCell>
                <mxCell id="28" value="" style="line;strokeWidth=1;direction=south;html=1;dashed=1;dashPattern=20 20;fillColor=#b1ddf0;strokeColor=#10739e;" parent="1" vertex="1">
                    <mxGeometry x="-10" y="40" width="10" height="1040" as="geometry"/>
                </mxCell>
                <mxCell id="29" value="Hacker" style="text;align=center;fontSize=16;fontStyle=1;spacing=-1;" parent="1" vertex="1">
                    <mxGeometry x="-180" y="20" width="60" height="20" as="geometry"/>
                </mxCell>
                <mxCell id="30" value="InjectAddStudent" style="html=1;align=center;verticalAlign=top;rounded=1;absoluteArcSize=1;arcSize=10;dashed=0;fontColor=#FFFFFF;" parent="1" vertex="1">
                    <mxGeometry x="-370" y="310" width="140" height="40" as="geometry"/>
                </mxCell>
                <mxCell id="31" value="ModifyExpell" style="html=1;align=center;verticalAlign=top;rounded=1;absoluteArcSize=1;arcSize=10;dashed=0;fontColor=#FFFFFF;" parent="1" vertex="1">
                    <mxGeometry x="-370" y="390" width="140" height="40" as="geometry"/>
                </mxCell>
                <mxCell id="32" value="ModifySquadInsetion" style="html=1;align=center;verticalAlign=top;rounded=1;absoluteArcSize=1;arcSize=10;dashed=0;fontColor=#FFFFFF;" parent="1" vertex="1">
                    <mxGeometry x="-300" y="450" width="140" height="40" as="geometry"/>
                </mxCell>
                <mxCell id="33" value="RandomizeBloodStatus" style="html=1;align=center;verticalAlign=top;rounded=1;absoluteArcSize=1;arcSize=10;dashed=0;fontColor=#FFFFFF;" parent="1" vertex="1">
                    <mxGeometry x="-260" y="520" width="140" height="40" as="geometry"/>
                </mxCell>
                <mxCell id="35" style="edgeStyle=none;html=1;entryX=0.5;entryY=0;entryDx=0;entryDy=0;" parent="1" source="34" target="30" edge="1">
                    <mxGeometry relative="1" as="geometry"/>
                </mxCell>
                <mxCell id="36" style="edgeStyle=none;html=1;entryX=0.5;entryY=0;entryDx=0;entryDy=0;exitX=0.25;exitY=1;exitDx=0;exitDy=0;" parent="1" source="34" target="31" edge="1">
                    <mxGeometry relative="1" as="geometry">
                        <Array as="points">
                            <mxPoint x="-185" y="370"/>
                            <mxPoint x="-300" y="370"/>
                        </Array>
                    </mxGeometry>
                </mxCell>
                <mxCell id="37" style="edgeStyle=none;html=1;entryX=0.862;entryY=-0.042;entryDx=0;entryDy=0;entryPerimeter=0;exitX=0.5;exitY=1;exitDx=0;exitDy=0;" parent="1" source="34" target="32" edge="1">
                    <mxGeometry relative="1" as="geometry">
                        <Array as="points">
                            <mxPoint x="-150" y="430"/>
                            <mxPoint x="-180" y="430"/>
                        </Array>
                    </mxGeometry>
                </mxCell>
                <mxCell id="38" style="edgeStyle=none;html=1;entryX=0.5;entryY=0;entryDx=0;entryDy=0;" parent="1" source="34" target="15" edge="1">
                    <mxGeometry relative="1" as="geometry">
                        <Array as="points">
                            <mxPoint x="120" y="260"/>
                        </Array>
                    </mxGeometry>
                </mxCell>
                <mxCell id="39" style="edgeStyle=none;html=1;entryX=0.75;entryY=0;entryDx=0;entryDy=0;exitX=0.75;exitY=1;exitDx=0;exitDy=0;" parent="1" source="34" target="33" edge="1">
                    <mxGeometry relative="1" as="geometry">
                        <Array as="points">
                            <mxPoint x="-115" y="500"/>
                            <mxPoint x="-155" y="500"/>
                        </Array>
                    </mxGeometry>
                </mxCell>
                <mxCell id="41" style="edgeStyle=none;html=1;entryX=0.5;entryY=0;entryDx=0;entryDy=0;exitX=1;exitY=0.75;exitDx=0;exitDy=0;" parent="1" source="34" target="40" edge="1">
                    <mxGeometry relative="1" as="geometry">
                        <Array as="points">
                            <mxPoint x="-20" y="270"/>
                            <mxPoint x="-20" y="330"/>
                            <mxPoint x="150" y="330"/>
                        </Array>
                    </mxGeometry>
                </mxCell>
                <mxCell id="44" style="edgeStyle=none;html=1;exitX=1;exitY=0.75;exitDx=0;exitDy=0;entryX=0.5;entryY=0;entryDx=0;entryDy=0;" parent="1" source="34" target="42" edge="1">
                    <mxGeometry relative="1" as="geometry">
                        <mxPoint x="140" y="430" as="targetPoint"/>
                        <Array as="points">
                            <mxPoint x="-20" y="270"/>
                            <mxPoint x="-20" y="330"/>
                            <mxPoint x="60" y="330"/>
                            <mxPoint x="60" y="430"/>
                            <mxPoint x="150" y="430"/>
                        </Array>
                    </mxGeometry>
                </mxCell>
                <mxCell id="34" value="Init" style="html=1;align=center;verticalAlign=top;rounded=1;absoluteArcSize=1;arcSize=10;dashed=0;fontColor=#FFFFFF;" parent="1" vertex="1">
                    <mxGeometry x="-220" y="240" width="140" height="40" as="geometry"/>
                </mxCell>
                <mxCell id="40" value="Filter students" style="html=1;align=center;verticalAlign=top;rounded=1;absoluteArcSize=1;arcSize=10;dashed=0;fontColor=#FFFFFF;" parent="1" vertex="1">
                    <mxGeometry x="80" y="360" width="140" height="40" as="geometry"/>
                </mxCell>
                <mxCell id="42" value="ShowStudents" style="html=1;align=center;verticalAlign=top;rounded=1;absoluteArcSize=1;arcSize=10;dashed=0;fontColor=#FFFFFF;" parent="1" vertex="1">
                    <mxGeometry x="80" y="440" width="140" height="40" as="geometry"/>
                </mxCell>
                <mxCell id="43" value="ShowInfo" style="html=1;align=center;verticalAlign=top;rounded=1;absoluteArcSize=1;arcSize=10;dashed=0;fontColor=#FFFFFF;" parent="1" vertex="1">
                    <mxGeometry x="80" y="525" width="140" height="40" as="geometry"/>
                </mxCell>
                <mxCell id="45" style="edgeStyle=none;html=1;exitX=1;exitY=0.75;exitDx=0;exitDy=0;entryX=0.5;entryY=0;entryDx=0;entryDy=0;" parent="1" source="34" target="43" edge="1">
                    <mxGeometry relative="1" as="geometry">
                        <mxPoint x="-70" y="280" as="sourcePoint"/>
                        <mxPoint x="160" y="450" as="targetPoint"/>
                        <Array as="points">
                            <mxPoint x="-20" y="270"/>
                            <mxPoint x="-20" y="330"/>
                            <mxPoint x="60" y="330"/>
                            <mxPoint x="60" y="500"/>
                            <mxPoint x="150" y="500"/>
                        </Array>
                    </mxGeometry>
                </mxCell>
                <mxCell id="50" style="edgeStyle=none;html=1;entryX=0.5;entryY=0;entryDx=0;entryDy=0;" parent="1" source="46" target="49" edge="1">
                    <mxGeometry relative="1" as="geometry"/>
                </mxCell>
                <mxCell id="46" value="PopupEvent" style="html=1;align=center;verticalAlign=top;rounded=1;absoluteArcSize=1;arcSize=10;dashed=0;fontColor=#FFFFFF;" parent="1" vertex="1">
                    <mxGeometry x="560" y="630" width="140" height="40" as="geometry"/>
                </mxCell>
                <mxCell id="47" style="edgeStyle=none;html=1;exitX=1;exitY=0.75;exitDx=0;exitDy=0;entryX=0.5;entryY=0;entryDx=0;entryDy=0;" parent="1" source="34" target="46" edge="1">
                    <mxGeometry relative="1" as="geometry">
                        <mxPoint x="-70" y="280" as="sourcePoint"/>
                        <mxPoint x="160" y="535" as="targetPoint"/>
                        <Array as="points">
                            <mxPoint x="-20" y="270"/>
                            <mxPoint x="-20" y="330"/>
                            <mxPoint x="60" y="330"/>
                            <mxPoint x="60" y="600"/>
                            <mxPoint x="630" y="600"/>
                        </Array>
                    </mxGeometry>
                </mxCell>
                <mxCell id="49" value="" style="ellipse;html=1;shape=endState;fillColor=#000000;strokeColor=#000000;" parent="1" vertex="1">
                    <mxGeometry x="615" y="720" width="30" height="30" as="geometry"/>
                </mxCell>
            </root>
        </mxGraphModel>
    </diagram>
</mxfile>